<svg width="215" height="61" viewBox="0 0 215 61" fill="none" xmlns="http://www.w3.org/2000/svg">
<rect x="0.5" y="0.5" width="214" height="60" fill="#181D2A" stroke="#313D55"/>
<path d="M70.4486 16.2099L69.5386 19.1899H67.5586L70.9286 8.66992H73.3786L76.7986 19.1999H74.7386L73.7886 16.2199H70.4486V16.2099ZM73.4586 14.7599L72.6286 12.1699C72.4286 11.5299 72.2586 10.8099 72.0986 10.1999H72.0686C71.9086 10.8099 71.7586 11.5399 71.5686 12.1699L70.7586 14.7599H73.4586Z" fill="#BAC3D4"/>
<path d="M79.6677 11.5901L80.8977 15.4501C81.1177 16.1201 81.2677 16.7301 81.4177 17.3501H81.4677C81.6077 16.7301 81.7777 16.1301 81.9877 15.4501L83.2077 11.5901H85.2177L82.3177 19.1901H80.4277L77.5977 11.5901H79.6677Z" fill="#BAC3D4"/>
<path d="M92.8775 17.3702C92.8775 18.0602 92.9075 18.7302 92.9975 19.2002H91.2675L91.1275 18.3602H91.0775C90.6275 18.9502 89.8275 19.3702 88.8275 19.3702C87.2975 19.3702 86.4375 18.2602 86.4375 17.1102C86.4375 15.2102 88.1375 14.2202 90.9475 14.2402V14.1202C90.9475 13.6202 90.7475 12.7902 89.3975 12.7902C88.6475 12.7902 87.8675 13.0202 87.3575 13.3502L86.9875 12.1002C87.5475 11.7602 88.5375 11.4302 89.7375 11.4302C92.1775 11.4302 92.8775 12.9802 92.8775 14.6502V17.3702ZM90.9975 15.4802C89.6375 15.4602 88.3475 15.7502 88.3475 16.9002C88.3475 17.6502 88.8275 17.9902 89.4375 17.9902C90.2175 17.9902 90.7675 17.4902 90.9475 16.9402C90.9975 16.8102 90.9975 16.6702 90.9975 16.5302V15.4802Z" fill="#BAC3D4"/>
<path d="M96.5405 10.4999C95.9005 10.4999 95.4805 10.0299 95.4805 9.46992C95.4805 8.87992 95.9205 8.41992 96.5605 8.41992C97.2205 8.41992 97.6205 8.86992 97.6405 9.46992C97.6405 10.0299 97.2205 10.4999 96.5605 10.4999H96.5405ZM95.5905 19.1999V11.5999H97.5105V19.1999H95.5905Z" fill="#BAC3D4"/>
<path d="M100.27 8.1001H102.19V19.2001H100.27V8.1001Z" fill="#BAC3D4"/>
<path d="M110.87 17.3702C110.87 18.0602 110.9 18.7302 110.99 19.2002H109.26L109.12 18.3602H109.07C108.62 18.9502 107.82 19.3702 106.82 19.3702C105.29 19.3702 104.43 18.2602 104.43 17.1102C104.43 15.2102 106.13 14.2202 108.94 14.2402V14.1202C108.94 13.6202 108.74 12.7902 107.4 12.7902C106.65 12.7902 105.87 13.0202 105.36 13.3502L104.99 12.1002C105.55 11.7602 106.54 11.4302 107.74 11.4302C110.17 11.4302 110.88 12.9802 110.88 14.6502V17.3702H110.87ZM108.99 15.4802C107.63 15.4602 106.34 15.7502 106.34 16.9002C106.34 17.6502 106.82 17.9902 107.43 17.9902C108.21 17.9902 108.76 17.4902 108.94 16.9402C108.99 16.8002 108.99 16.6602 108.99 16.5202V15.4802Z" fill="#BAC3D4"/>
<path d="M113.577 8.1001H115.497V12.6401H115.527C115.997 11.9101 116.827 11.4201 117.967 11.4201C119.827 11.4201 121.147 12.9701 121.137 15.2801C121.137 18.0101 119.407 19.3701 117.687 19.3701C116.707 19.3701 115.827 18.9901 115.287 18.0601H115.257L115.167 19.2001H113.527C113.557 18.6801 113.587 17.8401 113.587 17.0801V8.1001H113.577ZM115.497 16.0601C115.497 16.2201 115.517 16.3701 115.547 16.5101C115.747 17.2901 116.417 17.8501 117.247 17.8501C118.447 17.8501 119.187 16.9001 119.187 15.3501C119.187 14.0101 118.547 12.9201 117.267 12.9201C116.487 12.9201 115.767 13.4801 115.567 14.3201C115.537 14.4601 115.507 14.6301 115.507 14.8201V16.0601H115.497Z" fill="#BAC3D4"/>
<path d="M123.398 8.1001H125.318V19.2001H123.398V8.1001Z" fill="#BAC3D4"/>
<path d="M129.449 15.9299C129.499 17.2999 130.569 17.8999 131.789 17.8999C132.679 17.8999 133.299 17.7599 133.899 17.5599L134.179 18.8699C133.519 19.1499 132.619 19.3499 131.529 19.3499C129.059 19.3499 127.609 17.8399 127.609 15.5099C127.609 13.3999 128.889 11.4199 131.329 11.4199C133.799 11.4199 134.609 13.4499 134.609 15.1199C134.609 15.4799 134.579 15.7599 134.549 15.9299H129.449ZM132.789 14.5899C132.809 13.8899 132.489 12.7299 131.209 12.7299C130.019 12.7299 129.519 13.8099 129.449 14.5899H132.789Z" fill="#BAC3D4"/>
<path d="M144.08 19.3699C141.94 19.3699 140.27 17.8999 140.27 15.4499C140.27 12.9499 141.91 11.4199 144.2 11.4199C146.46 11.4199 147.98 13.0099 147.98 15.3199C147.98 18.1099 146.01 19.3599 144.09 19.3599H144.08V19.3699ZM144.14 17.9799C145.23 17.9799 146 16.9199 146 15.3699C146 14.1799 145.47 12.8099 144.16 12.8099C142.8 12.8099 142.25 14.1399 142.25 15.3999C142.25 16.8699 142.98 17.9799 144.12 17.9799H144.14Z" fill="#BAC3D4"/>
<path d="M150.24 13.8602C150.24 12.9902 150.21 12.2502 150.18 11.6002H151.85L151.94 12.7402H151.99C152.33 12.1502 153.16 11.4302 154.43 11.4302C155.76 11.4302 157.13 12.2902 157.13 14.6902V19.2002H155.21V14.9002C155.21 13.8102 154.8 12.9802 153.76 12.9802C153 12.9802 152.47 13.5302 152.26 14.1002C152.2 14.2602 152.17 14.4902 152.17 14.7102V19.1902H150.25V13.8602H150.24Z" fill="#BAC3D4"/>
<path d="M165.97 9.64014V11.5901H167.8V13.0301H165.97V16.3701C165.97 17.3101 166.22 17.7701 166.95 17.7701C167.29 17.7701 167.48 17.7501 167.7 17.6901L167.73 19.1401C167.45 19.2501 166.93 19.3401 166.34 19.3401C165.62 19.3401 165.05 19.1101 164.69 18.7201C164.27 18.2801 164.08 17.5801 164.08 16.5801V13.0201H163V11.5801H164.08V10.1601L165.97 9.64014Z" fill="#BAC3D4"/>
<path d="M169.928 8.1001H171.848V12.6301H171.878C172.108 12.2701 172.438 11.9701 172.828 11.7701C173.218 11.5501 173.668 11.4301 174.158 11.4301C175.448 11.4301 176.808 12.2901 176.808 14.7201V19.2001H174.888V14.9201C174.888 13.8301 174.478 12.9801 173.418 12.9801C172.668 12.9801 172.138 13.4801 171.918 14.0601C171.858 14.2301 171.838 14.4401 171.838 14.6401V19.2001H169.918V8.1001H169.928Z" fill="#BAC3D4"/>
<path d="M180.899 15.9299C180.949 17.2999 182.019 17.8999 183.239 17.8999C184.129 17.8999 184.749 17.7599 185.349 17.5599L185.629 18.8699C184.969 19.1499 184.069 19.3499 182.979 19.3499C180.509 19.3499 179.059 17.8399 179.059 15.5099C179.059 13.3999 180.339 11.4199 182.779 11.4199C185.249 11.4199 186.059 13.4499 186.059 15.1199C186.059 15.4799 186.029 15.7599 185.999 15.9299H180.899ZM184.239 14.5899C184.259 13.8899 183.939 12.7299 182.659 12.7299C181.469 12.7299 180.969 13.8099 180.899 14.5899H184.239Z" fill="#BAC3D4"/>
<path d="M46.5686 29.3998C46.5186 24.1898 50.8286 21.6598 51.0286 21.5398C48.5886 17.9798 44.7986 17.4898 43.4686 17.4498C40.2886 17.1198 37.2086 19.3498 35.5886 19.3498C33.9386 19.3498 31.4386 17.4798 28.7586 17.5298C25.2986 17.5898 22.0686 19.5898 20.2886 22.6898C16.6286 29.0298 19.3586 38.3398 22.8686 43.4698C24.6286 45.9798 26.6786 48.7798 29.3586 48.6798C31.9786 48.5698 32.9586 47.0098 36.1286 47.0098C39.2686 47.0098 40.1886 48.6798 42.9286 48.6198C45.7486 48.5698 47.5186 46.0998 49.2086 43.5698C51.2386 40.6898 52.0486 37.8598 52.0886 37.7198C52.0187 37.7098 46.6186 35.6398 46.5686 29.3998Z" fill="#BAC3D4"/>
<path d="M41.3884 14.09C42.7984 12.32 43.7684 9.91998 43.4984 7.47998C41.4584 7.56998 38.8984 8.88998 37.4284 10.62C36.1284 12.14 34.9584 14.64 35.2584 16.98C37.5684 17.16 39.9184 15.83 41.3884 14.09Z" fill="#BAC3D4"/>
<path d="M84.5119 48.2801H80.8519L78.8519 41.9801H71.8919L69.9819 48.2801H66.4219L73.3219 26.8401H77.5819L84.5119 48.2801ZM78.2519 39.3401L76.4419 33.7401C76.2519 33.1701 75.8919 31.8201 75.3619 29.7001H75.3019C75.0919 30.6101 74.7519 31.9601 74.2819 33.7401L72.5019 39.3401H78.2519Z" fill="#BAC3D4"/>
<path d="M102.261 40.36C102.261 42.99 101.551 45.07 100.131 46.59C98.8611 47.95 97.2811 48.62 95.3911 48.62C93.3511 48.62 91.8911 47.89 91.0011 46.43H90.9411V54.57H87.5011V37.91C87.5011 36.26 87.4611 34.56 87.3711 32.82H90.3911L90.5811 35.27H90.6511C91.7911 33.42 93.5311 32.5 95.8611 32.5C97.6811 32.5 99.2111 33.22 100.421 34.66C101.651 36.12 102.261 38.01 102.261 40.36ZM98.7611 40.49C98.7611 38.99 98.4211 37.74 97.7411 36.77C97.0011 35.75 96.0011 35.24 94.7511 35.24C93.9011 35.24 93.1311 35.52 92.4411 36.08C91.7511 36.65 91.3011 37.38 91.0911 38.29C90.9811 38.71 90.9311 39.06 90.9311 39.34V41.92C90.9311 43.04 91.2711 43.99 91.9611 44.76C92.6511 45.54 93.5511 45.92 94.6511 45.92C95.9411 45.92 96.9511 45.43 97.6711 44.43C98.4011 43.44 98.7611 42.12 98.7611 40.49Z" fill="#BAC3D4"/>
<path d="M120.04 40.36C120.04 42.99 119.33 45.07 117.91 46.59C116.64 47.95 115.06 48.62 113.17 48.62C111.14 48.62 109.67 47.89 108.78 46.43H108.72V54.57H105.29V37.91C105.29 36.26 105.25 34.56 105.16 32.82H108.18L108.37 35.27H108.44C109.58 33.42 111.32 32.5 113.65 32.5C115.47 32.5 116.99 33.22 118.21 34.66C119.43 36.12 120.04 38.01 120.04 40.36ZM116.54 40.49C116.54 38.99 116.2 37.74 115.52 36.77C114.78 35.75 113.78 35.24 112.53 35.24C111.68 35.24 110.91 35.52 110.22 36.08C109.53 36.65 109.08 37.38 108.87 38.29C108.76 38.71 108.71 39.06 108.71 39.34V41.92C108.71 43.04 109.05 43.99 109.74 44.76C110.43 45.54 111.32 45.92 112.43 45.92C113.72 45.92 114.73 45.43 115.45 44.43C116.18 43.44 116.54 42.12 116.54 40.49Z" fill="#BAC3D4"/>
<path d="M139.923 42.27C139.923 44.09 139.293 45.58 138.013 46.72C136.613 47.97 134.673 48.6 132.173 48.6C129.863 48.6 128.013 48.16 126.613 47.27L127.413 44.41C128.923 45.32 130.573 45.78 132.383 45.78C133.673 45.78 134.683 45.49 135.403 44.91C136.123 44.32 136.483 43.54 136.483 42.57C136.483 41.7 136.183 40.97 135.593 40.37C135.003 39.77 134.013 39.22 132.633 38.71C128.883 37.31 127.003 35.26 127.003 32.56C127.003 30.8 127.663 29.35 128.973 28.23C130.283 27.1 132.033 26.54 134.223 26.54C136.173 26.54 137.793 26.88 139.083 27.56L138.223 30.36C137.013 29.7 135.643 29.37 134.123 29.37C132.913 29.37 131.973 29.67 131.293 30.26C130.723 30.79 130.433 31.44 130.433 32.2C130.433 33.05 130.763 33.75 131.413 34.3C131.983 34.81 133.023 35.36 134.533 35.96C136.373 36.7 137.733 37.57 138.603 38.57C139.483 39.55 139.923 40.79 139.923 42.27Z" fill="#BAC3D4"/>
<path d="M151.272 35.4002H147.492V42.9102C147.492 44.8202 148.162 45.7702 149.502 45.7702C150.112 45.7702 150.622 45.7202 151.022 45.6102L151.112 48.2202C150.442 48.4702 149.542 48.6002 148.442 48.6002C147.082 48.6002 146.022 48.1902 145.262 47.3602C144.502 46.5302 144.112 45.1402 144.112 43.1902V35.4002H141.852V32.8202H144.112V29.9902L147.482 28.9702V32.8202H151.262V35.4002H151.272Z" fill="#BAC3D4"/>
<path d="M168.353 40.43C168.353 42.81 167.673 44.76 166.323 46.28C164.903 47.85 163.013 48.63 160.663 48.63C158.393 48.63 156.583 47.88 155.243 46.37C153.893 44.87 153.223 42.97 153.223 40.68C153.223 38.28 153.913 36.32 155.303 34.8C156.693 33.27 158.563 32.51 160.913 32.51C163.183 32.51 165.003 33.26 166.383 34.77C167.703 36.23 168.353 38.12 168.353 40.43ZM164.793 40.54C164.793 39.12 164.483 37.89 163.873 36.87C163.153 35.64 162.123 35.02 160.793 35.02C159.413 35.02 158.363 35.64 157.643 36.87C157.023 37.89 156.723 39.13 156.723 40.6C156.723 42.02 157.023 43.25 157.643 44.27C158.383 45.5 159.423 46.12 160.763 46.12C162.073 46.12 163.103 45.49 163.843 44.24C164.473 43.2 164.793 41.96 164.793 40.54Z" fill="#BAC3D4"/>
<path d="M179.512 35.85C179.172 35.79 178.812 35.76 178.432 35.76C177.222 35.76 176.292 36.22 175.632 37.13C175.062 37.94 174.772 38.95 174.772 40.18V48.29H171.342L171.372 37.7C171.372 35.92 171.332 34.3 171.242 32.83H174.232L174.362 35.79H174.452C174.812 34.77 175.392 33.95 176.172 33.34C176.932 32.79 177.762 32.51 178.652 32.51C178.972 32.51 179.252 32.53 179.512 32.57V35.85Z" fill="#BAC3D4"/>
<path d="M194.871 39.82C194.871 40.44 194.831 40.95 194.751 41.38H184.451C184.491 42.91 184.991 44.07 185.941 44.88C186.811 45.6 187.931 45.96 189.311 45.96C190.831 45.96 192.221 45.72 193.481 45.23L194.021 47.62C192.561 48.26 190.831 48.58 188.831 48.58C186.441 48.58 184.551 47.87 183.191 46.46C181.831 45.05 181.141 43.16 181.141 40.78C181.141 38.45 181.781 36.51 183.051 34.96C184.381 33.31 186.191 32.48 188.451 32.48C190.681 32.48 192.371 33.31 193.511 34.96C194.421 36.27 194.871 37.89 194.871 39.82ZM191.601 38.93C191.621 37.91 191.401 37.03 190.931 36.29C190.341 35.34 189.421 34.86 188.191 34.86C187.071 34.86 186.161 35.33 185.461 36.26C184.891 37 184.551 37.89 184.451 38.93H191.601Z" fill="#BAC3D4"/>
</svg>
