<svg width="20" height="20" viewBox="0 0 20 20" fill="none" xmlns="http://www.w3.org/2000/svg">
<path d="M15.0898 2.72993L1.95739 6.24874C1.68947 6.32053 1.46081 6.49493 1.3217 6.73357C1.1826 6.97221 1.14445 7.25555 1.21565 7.52126L3.63161 16.5378C3.70281 16.8035 3.87751 17.0298 4.1173 17.1669C4.35709 17.304 4.64232 17.3407 4.91023 17.2689L18.0426 13.7501C18.3105 13.6783 18.5392 13.5039 18.6783 13.2653C18.8174 13.0266 18.8555 12.7433 18.7844 12.4776L16.3684 3.46109C16.2972 3.19539 16.1225 2.96909 15.8827 2.83197C15.6429 2.69485 15.3577 2.65815 15.0898 2.72993ZM2.22583 7.25058L15.3582 3.73177L15.7689 5.26458L2.63654 8.78338L2.22583 7.25058ZM4.64179 16.2671L2.90498 9.78522L16.0374 6.26641L17.7742 12.7483L4.64179 16.2671Z" fill="#BAC3D4"/>
<path fill-rule="evenodd" clip-rule="evenodd" d="M1.91425 6.08776L15.0466 2.56895C15.3568 2.48583 15.6873 2.52824 15.9654 2.68728C16.2436 2.84636 16.4466 3.10912 16.5294 3.41795L18.9453 12.4345C19.0281 12.7433 18.9837 13.0724 18.8223 13.3492C18.6609 13.626 18.3959 13.828 18.0857 13.9111L4.95337 17.4299C4.64319 17.513 4.3127 17.4706 4.03457 17.3116C3.75638 17.1525 3.55338 16.8897 3.47062 16.5809L1.05466 7.56439C0.971906 7.25556 1.01634 6.9265 1.17771 6.64964C1.33906 6.37284 1.60407 6.17087 1.91425 6.08776ZM15.2404 3.93589L2.42995 7.36843L2.75439 8.57926L15.5648 5.14672L15.2404 3.93589ZM3.10911 9.90307L4.75965 16.063L17.57 12.6304L15.9195 6.47053L3.10911 9.90307ZM1.95739 6.24874L15.0898 2.72993C15.3577 2.65815 15.6429 2.69485 15.8827 2.83197C16.1225 2.96909 16.2972 3.19539 16.3684 3.46109L18.7844 12.4776C18.8555 12.7433 18.8174 13.0266 18.6783 13.2653C18.5392 13.5039 18.3105 13.6783 18.0426 13.7501L4.91023 17.2689C4.64232 17.3407 4.35709 17.304 4.1173 17.1669C3.87751 17.0298 3.70281 16.8035 3.63161 16.5378L1.21565 7.52126C1.14445 7.25555 1.1826 6.97221 1.3217 6.73357C1.46081 6.49493 1.68947 6.32053 1.95739 6.24874ZM2.22583 7.25058L2.63654 8.78338L15.7689 5.26458L15.3582 3.73177L2.22583 7.25058ZM4.64179 16.2671L17.7742 12.7483L16.0374 6.26641L2.90498 9.78522L4.64179 16.2671Z" fill="#BAC3D4"/>
</svg>
