<svg width="24" height="24" viewBox="0 0 24 24" fill="none" xmlns="http://www.w3.org/2000/svg">
<rect y="3" width="24" height="2" fill="#BAC3D4"/>
<rect y="11" width="24" height="2" fill="#BAC3D4"/>
<rect y="19" width="24" height="2" fill="#BAC3D4"/>
<path d="M22 4C22 6.20914 20.2091 8 18 8C15.7909 8 14 6.20914 14 4C14 1.79086 15.7909 0 18 0C20.2091 0 22 1.79086 22 4Z" fill="#11151F"/>
<path fill-rule="evenodd" clip-rule="evenodd" d="M18 6C19.1046 6 20 5.10457 20 4C20 2.89543 19.1046 2 18 2C16.8954 2 16 2.89543 16 4C16 5.10457 16.8954 6 18 6ZM18 8C20.2091 8 22 6.20914 22 4C22 1.79086 20.2091 0 18 0C15.7909 0 14 1.79086 14 4C14 6.20914 15.7909 8 18 8Z" fill="#BAC3D4"/>
<path d="M11 12C11 14.2091 9.20914 16 7 16C4.79086 16 3 14.2091 3 12C3 9.79086 4.79086 8 7 8C9.20914 8 11 9.79086 11 12Z" fill="#11151F"/>
<path fill-rule="evenodd" clip-rule="evenodd" d="M7 14C8.10457 14 9 13.1046 9 12C9 10.8954 8.10457 10 7 10C5.89543 10 5 10.8954 5 12C5 13.1046 5.89543 14 7 14ZM7 16C9.20914 16 11 14.2091 11 12C11 9.79086 9.20914 8 7 8C4.79086 8 3 9.79086 3 12C3 14.2091 4.79086 16 7 16Z" fill="#BAC3D4"/>
<path d="M22 20C22 22.2091 20.2091 24 18 24C15.7909 24 14 22.2091 14 20C14 17.7909 15.7909 16 18 16C20.2091 16 22 17.7909 22 20Z" fill="#11151F"/>
<path fill-rule="evenodd" clip-rule="evenodd" d="M18 22C19.1046 22 20 21.1046 20 20C20 18.8954 19.1046 18 18 18C16.8954 18 16 18.8954 16 20C16 21.1046 16.8954 22 18 22ZM18 24C20.2091 24 22 22.2091 22 20C22 17.7909 20.2091 16 18 16C15.7909 16 14 17.7909 14 20C14 22.2091 15.7909 24 18 24Z" fill="#BAC3D4"/>
</svg>
