<svg width="18" height="20" viewBox="0 0 18 20" fill="none" xmlns="http://www.w3.org/2000/svg">
<path d="M17.2 6.88922C17.2005 6.79409 17.1817 6.69994 17.1448 6.6122C17.1078 6.52425 17.0536 6.44463 16.9853 6.37775L16.9847 6.37718L11.1181 0.673475L11.1181 0.673421L11.1141 0.669705C10.975 0.541734 10.7928 0.469776 10.6034 0.466533L10.6034 0.466504H10.6H2.6C2.1244 0.466504 1.66718 0.650134 1.32921 0.978717C0.991051 1.30749 0.8 1.75461 0.8 2.22206V17.7776C0.8 18.2451 0.991051 18.6922 1.32921 19.021C1.66718 19.3495 2.1244 19.5332 2.6 19.5332H15.4C15.8756 19.5332 16.3328 19.3495 16.6708 19.021C17.0089 18.6922 17.2 18.2451 17.2 17.7776V6.88922ZM17.2 6.88922C17.2 6.88945 17.2 6.88968 17.2 6.88992L17 6.88873H17.2V6.88922ZM11.3333 5.85169V2.90804L14.6887 6.17021H11.6667C11.5765 6.17021 11.4911 6.13532 11.429 6.07494C11.367 6.01474 11.3333 5.93432 11.3333 5.85169ZM2.26667 2.22206C2.26667 2.13943 2.30038 2.05901 2.36229 1.99881C2.4244 1.93843 2.5098 1.90354 2.6 1.90354H9.86666V5.85169C9.86666 6.31914 10.0577 6.76626 10.3959 7.09503C10.7338 7.42362 11.1911 7.60724 11.6667 7.60724H15.7333V17.7776C15.7333 17.8602 15.6996 17.9407 15.6377 18.0009L15.7771 18.1443L15.6377 18.0009C15.5756 18.0612 15.4902 18.0961 15.4 18.0961H2.6C2.5098 18.0961 2.4244 18.0612 2.36229 18.0009L2.22288 18.1443L2.36229 18.0009C2.30038 17.9407 2.26667 17.8602 2.26667 17.7776V2.22206Z" fill="#566178" stroke="#566178" stroke-width="0.4"/>
</svg>
