<svg width="18" height="18" viewBox="0 0 18 18" fill="none" xmlns="http://www.w3.org/2000/svg">
<path d="M15.2 6.66714C15.2004 6.58908 15.1849 6.51185 15.1547 6.4399C15.1244 6.36775 15.0799 6.30249 15.024 6.24773L15.0234 6.24716L10.6234 1.96938L10.6235 1.96932L10.6194 1.96561C10.506 1.86122 10.3575 1.80267 10.2034 1.80003L10.2034 1.8H10.2H4.2C3.83049 1.8 3.47501 1.94266 3.21206 2.19831C2.94891 2.45415 2.8 2.80236 2.8 3.16667V14.8333C2.8 15.1976 2.94891 15.5459 3.21206 15.8017C3.47501 16.0573 3.83049 16.2 4.2 16.2H13.8C14.1695 16.2 14.525 16.0573 14.7879 15.8017C15.0511 15.5459 15.2 15.1976 15.2 14.8333V6.66714ZM15.2 6.66714C15.2 6.66738 15.2 6.66762 15.2 6.66786L15 6.66667H15.2V6.66714ZM10.8 5.88889V3.7995L13.1434 6.07778H11C10.9452 6.07778 10.8937 6.05655 10.8566 6.02048C10.8197 5.98459 10.8 5.93714 10.8 5.88889ZM4 3.16667C4 3.11842 4.01966 3.07097 4.05657 3.03508C4.09368 2.99901 4.14517 2.97778 4.2 2.97778H9.6V5.88889C9.6 6.2532 9.7489 6.60141 10.0121 6.85725C10.275 7.1129 10.6305 7.25556 11 7.25556H14V14.8333C14 14.8816 13.9803 14.929 13.9434 14.9649C13.9063 15.001 13.8548 15.0222 13.8 15.0222H4.2C4.14517 15.0222 4.09367 15.001 4.05657 14.9649C4.01966 14.929 4 14.8816 4 14.8333V3.16667Z" fill="#BAC3D4" stroke="#BAC3D4" stroke-width="0.4"/>
</svg>
