<svg width="216" height="61" viewBox="0 0 216 61" fill="none" xmlns="http://www.w3.org/2000/svg">
<rect x="0.5" y="0.5" width="215" height="60" fill="#181D2A" stroke="#313D55"/>
<path d="M108.779 33.8202C104.999 33.8202 101.909 36.7002 101.909 40.6602C101.909 44.6002 104.989 47.5002 108.779 47.5002C112.559 47.5002 115.649 44.6002 115.649 40.6602C115.639 36.7002 112.559 33.8202 108.779 33.8202ZM108.779 44.8102C106.709 44.8102 104.919 43.1002 104.919 40.6602C104.919 38.2002 106.709 36.5102 108.779 36.5102C110.849 36.5102 112.639 38.1902 112.639 40.6602C112.639 43.1002 110.849 44.8102 108.779 44.8102ZM93.7992 33.8202C90.0192 33.8202 86.9292 36.7002 86.9292 40.6602C86.9292 44.6002 90.0092 47.5002 93.7992 47.5002C97.5792 47.5002 100.669 44.6002 100.669 40.6602C100.659 36.7002 97.5792 33.8202 93.7992 33.8202ZM93.7992 44.8102C91.7292 44.8102 89.9392 43.1002 89.9392 40.6602C89.9392 38.2002 91.7292 36.5102 93.7992 36.5102C95.8692 36.5102 97.6592 38.1902 97.6592 40.6602C97.6592 43.1002 95.8692 44.8102 93.7992 44.8102ZM75.9792 35.9202V38.8202H82.9192C82.7092 40.4502 82.1692 41.6402 81.3392 42.4702C80.3292 43.4802 78.7492 44.5902 75.9792 44.5902C71.6992 44.5902 68.3592 41.1402 68.3592 36.8702C68.3592 32.6002 71.6992 29.1502 75.9792 29.1502C78.2892 29.1502 79.9692 30.0602 81.2092 31.2202L83.2592 29.1702C81.5192 27.5102 79.2192 26.2402 75.9792 26.2402C70.1192 26.2402 65.1992 31.0102 65.1992 36.8602C65.1992 42.7202 70.1192 47.4802 75.9792 47.4802C79.1392 47.4802 81.5292 46.4402 83.3892 44.5002C85.3092 42.5802 85.8992 39.8902 85.8992 37.7102C85.8992 37.0402 85.8492 36.4102 85.7392 35.9002H75.9792V35.9202ZM148.849 38.1702C148.279 36.6402 146.539 33.8202 142.989 33.8202C139.469 33.8202 136.539 36.5902 136.539 40.6602C136.539 44.5002 139.439 47.5002 143.329 47.5002C146.469 47.5002 148.279 45.5802 149.029 44.4702L146.699 42.9202C145.919 44.0602 144.859 44.8102 143.329 44.8102C141.799 44.8102 140.709 44.1102 140.009 42.7402L149.159 38.9602L148.849 38.1702ZM139.519 40.4502C139.439 37.8102 141.569 36.4602 143.099 36.4602C144.289 36.4602 145.299 37.0602 145.639 37.9102L139.519 40.4502ZM132.089 47.0902H135.099V26.9802H132.089V47.0902ZM127.159 35.3502H127.059C126.389 34.5502 125.089 33.8202 123.459 33.8202C120.039 33.8202 116.899 36.8302 116.899 40.6902C116.899 44.5202 120.039 47.5002 123.459 47.5002C125.089 47.5002 126.389 46.7702 127.059 45.9502H127.159V46.9302C127.159 49.5502 125.759 50.9502 123.509 50.9502C121.669 50.9502 120.529 49.6302 120.059 48.5102L117.439 49.6002C118.189 51.4102 120.189 53.6402 123.499 53.6402C127.019 53.6402 129.999 51.5702 129.999 46.5102V34.2302H127.149V35.3502H127.159ZM123.719 44.8102C121.649 44.8102 119.909 43.0702 119.909 40.6902C119.909 38.2802 121.649 36.5202 123.719 36.5202C125.769 36.5202 127.369 38.2802 127.369 40.6902C127.369 43.0702 125.759 44.8102 123.719 44.8102ZM162.929 26.9802H155.739V47.0902H158.739V39.4702H162.929C166.259 39.4702 169.529 37.0602 169.529 33.2302C169.529 29.3902 166.259 26.9802 162.929 26.9802ZM163.009 36.6702H158.739V29.7802H163.009C165.249 29.7802 166.529 31.6402 166.529 33.2302C166.529 34.7802 165.249 36.6702 163.009 36.6702ZM181.549 33.7802C179.379 33.7802 177.129 34.7402 176.199 36.8602L178.859 37.9702C179.429 36.8602 180.489 36.5002 181.599 36.5002C183.149 36.5002 184.729 37.4302 184.759 39.0902V39.3002C184.219 38.9902 183.049 38.5202 181.629 38.5202C178.759 38.5202 175.839 40.1002 175.839 43.0502C175.839 45.7402 178.189 47.4702 180.829 47.4702C182.849 47.4702 183.959 46.5602 184.659 45.5002H184.759V47.0502H187.659V39.3402C187.659 35.7702 184.999 33.7802 181.549 33.7802ZM181.189 44.8002C180.209 44.8002 178.839 44.3102 178.839 43.0902C178.839 41.5402 180.549 40.9402 182.019 40.9402C183.339 40.9402 183.959 41.2202 184.759 41.6102C184.529 43.4802 182.929 44.8002 181.189 44.8002ZM198.209 34.2202L194.769 42.9402H194.669L191.099 34.2202H187.869L193.219 46.4002L190.169 53.1802H193.299L201.549 34.2202H198.209ZM171.179 47.0902H174.179V26.9802H171.179V47.0902Z" fill="#BAC3D4"/>
<path d="M15.9705 10.9704C15.5005 11.4604 15.2305 12.2304 15.2305 13.2304V48.7703C15.2305 49.7703 15.5105 50.5303 15.9705 51.0303L16.0905 51.1503L36.0005 31.2403V31.0004V30.7703L16.0905 10.8604L15.9705 10.9704Z" fill="#5BC9F4"/>
<path d="M42.64 37.8804L36 31.2404V31.0004V30.7704L42.64 24.1304L42.79 24.2204L50.65 28.6904C52.9 29.9704 52.9 32.0504 50.65 33.3304L42.79 37.8004L42.64 37.8804Z" fill="url(#paint0_linear)"/>
<path d="M42.7888 37.7902L35.9988 31.0002L15.9688 51.0302C16.7088 51.8102 17.9288 51.9102 19.3088 51.1302L42.7888 37.7902Z" fill="url(#paint1_linear)"/>
<path d="M42.7888 24.2103L19.3088 10.8803C17.9288 10.1003 16.7088 10.1903 15.9688 10.9803L35.9988 31.0003L42.7888 24.2103Z" fill="url(#paint2_linear)"/>
<path d="M72.9311 12.1103C72.3311 11.5703 71.5311 11.2303 70.6511 11.2303C68.6711 11.2303 67.1511 12.8603 67.1511 14.8703C67.1511 16.8703 68.6711 18.4902 70.6511 18.4902C72.3511 18.4902 73.5911 17.5003 73.6711 15.9403H70.9811V14.8303H75.1311C75.1311 18.1503 73.3611 19.7203 70.6511 19.7203C67.9611 19.7203 65.8711 17.5503 65.8711 14.8703C65.8711 12.1803 67.9611 10.0103 70.6511 10.0103C71.9011 10.0103 73.0311 10.4903 73.8511 11.2603L72.9311 12.1103Z" fill="#BAC3D4"/>
<path d="M82.4694 10.1201V11.3101H78.1394V14.3301H81.9194V15.5301H78.1394V18.3901H82.5994V19.5801H76.8594V10.1201H82.4694Z" fill="#BAC3D4"/>
<path d="M90.7527 10.1201V11.3301H87.8827V19.5801H86.5927V11.3301H83.7227V10.1201H90.7527Z" fill="#BAC3D4"/>
<path d="M96.8816 10.1201V19.5801H95.6016V10.1201H96.8816Z" fill="#BAC3D4"/>
<path d="M105.592 10.1201V11.3301H102.723V19.5801H101.433V11.3301H98.5625V10.1201H105.592Z" fill="#BAC3D4"/>
<path d="M114.6 10.0103C117.31 10.0103 119.41 12.1803 119.41 14.8703C119.41 17.5503 117.31 19.7203 114.6 19.7203C111.91 19.7203 109.82 17.5503 109.82 14.8703C109.82 12.1803 111.91 10.0103 114.6 10.0103ZM114.6 18.4803C116.59 18.4803 118.12 16.8703 118.12 14.8703C118.12 12.8603 116.6 11.2402 114.6 11.2402C112.62 11.2402 111.1 12.8603 111.1 14.8703C111.1 16.8803 112.62 18.4803 114.6 18.4803Z" fill="#BAC3D4"/>
<path d="M126.961 19.5801L122.651 12.4501V19.5801H121.371V10.1201H122.631L126.901 17.1901V10.1201H128.181V19.5801H126.961Z" fill="#BAC3D4"/>
<defs>
<linearGradient id="paint0_linear" x1="49.1902" y1="31.0029" x2="10.3046" y2="31.0029" gradientUnits="userSpaceOnUse">
<stop stop-color="#FEE000"/>
<stop offset="0.1941" stop-color="#FCCF0B"/>
<stop offset="0.5469" stop-color="#FAB318"/>
<stop offset="0.8279" stop-color="#F9A21B"/>
<stop offset="1" stop-color="#F99B1C"/>
</linearGradient>
<linearGradient id="paint1_linear" x1="39.0977" y1="34.6905" x2="2.52405" y2="71.2641" gradientUnits="userSpaceOnUse">
<stop stop-color="#EF4547"/>
<stop offset="1" stop-color="#C6186D"/>
</linearGradient>
<linearGradient id="paint2_linear" x1="2.36105" y1="-9.42274" x2="32.2224" y2="20.4387" gradientUnits="userSpaceOnUse">
<stop stop-color="#279E6F"/>
<stop offset="0.3168" stop-color="#4DAB6D"/>
<stop offset="0.7398" stop-color="#6ABA6A"/>
<stop offset="1" stop-color="#74C169"/>
</linearGradient>
</defs>
</svg>
