<svg width="109" height="103" viewBox="0 0 109 103" fill="none" xmlns="http://www.w3.org/2000/svg">
<path d="M54.0922 57.0554L37.2014 52.46H21.8352L4.94441 57.0554C2.43744 57.735 0.695068 60.0097 0.695068 62.6033V102.303H58.3415V62.6033C58.3415 60.0097 56.5992 57.735 54.0922 57.0554Z" fill="#C5C5C7"/>
<path d="M0.695068 62.6036V102.303H12.2244V74.9198C12.2244 72.7885 11.5107 70.7173 10.1993 69.0345L2.19647 58.7617C1.26505 59.7927 0.695068 61.138 0.695068 62.6036Z" fill="#9D9D9D"/>
<path d="M58.3413 62.6039V102.303H46.812V74.9201C46.812 72.7888 47.5256 70.7176 48.8371 69.0347L56.8445 58.7666C57.7713 59.793 58.3413 61.1383 58.3413 62.6039Z" fill="#9D9D9D"/>
<path d="M39.1245 44.79H19.9121V60.1252H39.1245V44.79Z" fill="#E2E2E2"/>
<path d="M19.9121 52.46C22.8686 53.6897 26.1123 54.374 29.5183 54.374C32.9243 54.374 36.168 53.6897 39.1245 52.46V45.7471H19.9121V52.46Z" fill="#C9C9C9"/>
<path d="M104.672 70.1817L91.4975 64.9252C90.0378 64.3426 89.0832 62.9326 89.0832 61.3653V54.375H73.7124V61.3653C73.7124 62.9326 72.7578 64.3426 71.2935 64.9252L58.1191 70.1817C55.9319 71.0555 54.4954 73.1683 54.4954 75.5216V83.1314C54.4954 84.1901 55.3526 85.05 56.4138 85.05V102.304H106.373V85.05C107.434 85.05 108.296 84.1901 108.296 83.1314V75.5216C108.296 73.1683 106.859 71.0555 104.672 70.1817Z" fill="#E2E2E2"/>
<path d="M81.3958 63.9589C84.1715 63.9589 86.8175 63.4457 89.2782 62.5488C89.153 62.1697 89.0835 61.7721 89.0835 61.3607V54.375H73.7127V61.3653C73.7127 61.7767 73.6385 62.1743 73.5134 62.5534C75.9787 63.4457 78.6247 63.9589 81.3958 63.9589Z" fill="#C9C9C9"/>
<path d="M104.672 70.1812L93.7543 65.8262C91.9331 68.6879 87.8228 74.1757 81.3955 77.3796C74.9682 74.1757 70.8579 68.6879 69.0367 65.8262L58.1191 70.1812C55.9319 71.055 54.4954 73.1678 54.4954 75.521V85.0449H64.1016V102.299H98.6894V85.0449H108.296V75.521C108.296 73.1678 106.859 71.055 104.672 70.1812Z" fill="#C5C5C7"/>
<path d="M64.1016 82.8015C64.1016 81.7844 63.6984 80.8089 62.9755 80.0923L55.3665 72.501C54.8151 73.3933 54.4907 74.4289 54.4907 75.5199V85.0437H64.0969V82.8015H64.1016Z" fill="#9D9D9D"/>
<path d="M98.6892 82.8015C98.6892 81.7844 99.0924 80.8089 99.8153 80.0923L107.424 72.501C107.976 73.3933 108.3 74.4289 108.3 75.5199V85.0437H98.6938V82.8015H98.6892Z" fill="#9D9D9D"/>
<path d="M17.989 50.541L29.5183 60.1249L23.3227 64.762C22.4932 65.3815 21.3162 65.2336 20.6675 64.4245L15.0233 57.3834C14.4997 56.7315 14.4626 55.8161 14.926 55.1226L17.989 50.541Z" fill="#F2F2F2"/>
<path d="M41.0474 50.541L29.5181 60.1249L35.7137 64.762C36.5431 65.3815 37.7202 65.2336 38.3689 64.4245L44.0131 57.3834C44.5367 56.7315 44.5738 55.8161 44.1104 55.1226L41.0474 50.541Z" fill="#F2F2F2"/>
<path d="M46.8122 23.7037V12.2012H12.2244V23.7037C10.102 23.7037 8.37817 25.4189 8.37817 27.5364C8.37817 29.6538 10.0974 31.369 12.2244 31.369C12.2244 40.8974 19.9677 48.6228 29.5183 48.6228C39.0689 48.6228 46.8122 40.8974 46.8122 31.369C48.9346 31.369 50.6584 29.6538 50.6584 27.5364C50.6538 25.4189 48.9346 23.7037 46.8122 23.7037Z" fill="white"/>
<path d="M21.8352 31.3736V12.2012H12.2244V23.7037C10.102 23.7037 8.37817 25.4189 8.37817 27.5364C8.37817 29.6538 10.0974 31.369 12.2244 31.369C12.2244 40.8974 19.9677 48.6228 29.5183 48.6228C31.1865 48.6228 32.7945 48.3732 34.3237 47.934C27.1086 45.8581 21.8352 39.2377 21.8352 31.3736Z" fill="#EAEAEA"/>
<path d="M42.4519 21.8772C43.0126 23.3612 44.6021 24.0316 46.1684 23.7588C46.3769 23.7218 46.59 23.7033 46.8125 23.7033C47.5168 23.7033 48.1656 23.9068 48.7356 24.235V12.2008C48.7356 9.3344 47.1369 6.86098 44.8013 5.54799C44.3611 2.8018 41.9978 0.698242 39.1247 0.698242H23.7539C16.3257 0.698242 10.3062 6.70841 10.3062 14.1194V24.235C10.8761 23.9068 11.5249 23.7033 12.2292 23.7033H14.4953C15.4128 23.7033 16.2005 23.0561 16.3813 22.1638L17.5583 16.297C17.7807 15.1966 18.879 14.5309 19.9587 14.8314C25.1441 16.2785 35.6215 16.824 41.0525 14.1194L42.1739 20.8138C42.2249 21.1837 42.3222 21.5397 42.4519 21.8772Z" fill="#C5C5C7"/>
<path d="M23.7539 0.698242C16.3257 0.698242 10.3062 6.70841 10.3062 14.1194V24.235C10.8761 23.9068 11.5249 23.7033 12.2292 23.7033H14.4953C15.4128 23.7033 16.2005 23.0561 16.3813 22.1592L17.5583 16.297C17.7807 15.1966 18.879 14.5309 19.9633 14.8314C20.5287 14.9886 21.1635 15.1319 21.8401 15.266V12.2008C21.8401 5.8485 27.0023 0.698242 33.3694 0.698242H23.7539Z" fill="#9D9D9D"/>
<path d="M90.5846 10.4856C90.8302 9.81059 91.0017 9.10786 91.0017 8.36815C91.0017 4.13329 86.7014 0.698242 81.3955 0.698242C76.0896 0.698242 71.7893 4.13329 71.7893 8.36815C71.7893 9.13098 71.97 9.85682 72.2342 10.5549C65.1071 14.1287 60.2646 21.6922 60.2646 30.1527V35.2059C69.8708 31.3732 73.7124 25.622 73.7124 25.622C83.3186 33.2919 98.6894 27.5406 98.6894 40.9571L99.3336 39.9909C101.419 36.8702 102.531 33.204 102.531 29.4546C102.531 21.1005 97.6514 13.8975 90.5846 10.4856Z" fill="#C5C5C7"/>
<path d="M84.5373 8.62756C83.3835 8.45651 82.2065 8.35017 81.0016 8.37329C79.8292 8.3964 78.6939 8.53972 77.5771 8.75239C77.5725 8.62294 77.554 8.49812 77.554 8.37329C77.554 5.248 79.2083 2.48332 81.757 0.735747C81.6365 0.731124 81.5206 0.708008 81.3955 0.708008C76.0896 0.708008 71.7893 4.14305 71.7893 8.37791C71.7893 9.14536 71.9469 9.88046 72.211 10.5739C65.0979 14.1523 60.2646 21.7112 60.2646 30.1625V35.2156C74.1851 29.4274 73.7124 25.6317 73.7124 25.6317V21.7991C73.7124 15.2711 78.3695 9.84347 84.5373 8.62756C84.5373 8.62756 84.542 8.62756 84.5373 8.62756Z" fill="#9D9D9D"/>
<path d="M98.6894 40.9561C98.6894 28.2654 84.9405 32.7222 75.3204 26.7536C74.4446 26.2127 73.2768 26.4438 72.7068 27.3038C71.224 29.5368 68.1841 33.2122 64.2267 33.2862C62.0626 33.3278 60.26 34.9274 60.26 37.0911V37.1235C60.26 39.2409 61.9792 40.9561 64.1016 40.9561C64.1016 42.2737 64.2499 43.559 64.5279 44.7887C66.2749 52.4725 73.161 58.2053 81.3909 58.2053C89.6208 58.2053 96.5068 52.4679 98.2538 44.7887C98.5411 43.5543 98.6894 42.2737 98.6894 40.9561Z" fill="white"/>
<path d="M73.7124 40.9566V26.583C73.3185 26.7078 72.9524 26.9344 72.7115 27.3042C71.2286 29.5372 68.1887 33.2127 64.2313 33.2913C62.0673 33.3329 60.2646 34.9325 60.2646 37.0962V37.1285C60.2646 39.246 61.9838 40.9612 64.1062 40.9612C64.1062 42.2788 64.2545 43.5641 64.5325 44.7938C66.2795 52.4776 73.1656 58.2104 81.3955 58.2104C83.0637 58.2104 84.6763 57.9654 86.2056 57.5215C78.9905 55.4457 73.7124 48.8206 73.7124 40.9566Z" fill="#EAEAEA"/>
<path d="M29.5187 39.7372C27.8551 39.7372 26.2564 38.9467 25.1349 37.5643C25.0191 37.421 24.9635 37.2407 24.982 37.0558C25.0006 36.8708 25.0932 36.7044 25.2369 36.5888C25.3944 36.4594 25.5659 36.4316 25.6771 36.4316C25.8903 36.4316 26.0849 36.5241 26.2193 36.6905C27.0905 37.7631 28.2629 38.3503 29.5187 38.3503C30.7791 38.3503 31.9515 37.7585 32.818 36.6905C32.9524 36.5287 33.1471 36.4316 33.3602 36.4316C33.4714 36.4316 33.6383 36.4594 33.8004 36.5888C33.9441 36.7044 34.0368 36.8708 34.0553 37.0558C34.0738 37.2407 34.0229 37.421 33.9024 37.5643C32.781 38.942 31.1823 39.7372 29.5187 39.7372Z" fill="#343434"/>
<path d="M21.8356 31.073C22.7301 31.073 23.4577 30.347 23.4577 29.4546V27.5403C23.4577 26.6478 22.7301 25.9219 21.8356 25.9219C20.9364 25.9219 20.2134 26.6478 20.2134 27.5403V29.4546C20.2088 30.3517 20.9364 31.073 21.8356 31.073Z" fill="#343434"/>
<path d="M37.2015 31.073C38.1006 31.073 38.8237 30.347 38.8237 29.4546V27.5403C38.8237 26.6478 38.096 25.9219 37.2015 25.9219C36.307 25.9219 35.5793 26.6478 35.5793 27.5403V29.4546C35.5793 30.3517 36.307 31.073 37.2015 31.073Z" fill="#343434"/>
<path d="M12.2246 102.997C11.84 102.997 11.5295 102.687 11.5295 102.303V71.7945L7.76209 64.2725C7.67868 64.1061 7.66477 63.9165 7.72501 63.7408C7.78526 63.5652 7.91037 63.4218 8.07256 63.3386C8.16987 63.2878 8.27646 63.2646 8.38304 63.2646C8.64717 63.2646 8.88814 63.4126 9.00862 63.6484L12.8502 71.3183C12.9011 71.4154 12.9243 71.5217 12.9243 71.628V102.298C12.9243 102.682 12.6092 102.997 12.2246 102.997Z" fill="#343434"/>
<path d="M46.8123 102.997C46.4277 102.997 46.1172 102.687 46.1172 102.303V71.6329C46.1172 71.5266 46.1404 71.4202 46.1913 71.3232L50.0329 63.6533C50.1534 63.4175 50.3897 63.2695 50.6585 63.2695C50.765 63.2695 50.8716 63.2926 50.9689 63.3435C51.3119 63.5146 51.4509 63.9353 51.2794 64.2774L47.512 71.7994V102.308C47.5074 102.682 47.1923 102.997 46.8123 102.997Z" fill="#343434"/>
<path d="M81.3954 49.321C79.7318 49.321 78.1331 48.5304 77.0116 47.1481C76.8958 47.0047 76.8402 46.8244 76.8587 46.6395C76.8773 46.4546 76.9699 46.2881 77.1136 46.1726C77.2712 46.0431 77.4426 46.0154 77.5538 46.0154C77.767 46.0154 77.9616 46.1078 78.096 46.2696C78.9672 47.3376 80.1396 47.9294 81.3954 47.9294C82.6558 47.9294 83.8282 47.3422 84.6994 46.2696C84.8338 46.1078 85.0284 46.0107 85.2416 46.0107C85.3528 46.0107 85.5196 46.0385 85.6818 46.1679C85.8254 46.2835 85.9181 46.4499 85.9366 46.6349C85.9552 46.8198 85.8996 47.0001 85.7837 47.1434C84.6577 48.5258 83.059 49.321 81.3954 49.321Z" fill="#343434"/>
<path d="M73.7127 35.502C72.8182 35.502 72.0906 36.2279 72.0906 37.1204V39.0347C72.0906 39.9317 72.8182 40.6531 73.7127 40.6531C74.6072 40.6531 75.3349 39.9271 75.3349 39.0347V37.1204C75.3349 36.2279 74.6072 35.502 73.7127 35.502Z" fill="#343434"/>
<path d="M89.0836 40.6629C89.9781 40.6629 90.7058 39.9369 90.7058 39.0445V37.1301C90.7058 36.2377 89.9781 35.5117 89.0836 35.5117C88.1845 35.5117 87.4614 36.2377 87.4614 37.1301V39.0445C87.4568 39.9369 88.1845 40.6629 89.0836 40.6629Z" fill="#343434"/>
<path d="M106.373 102.996C105.988 102.996 105.677 102.686 105.677 102.303V85.7469H99.3846V102.303C99.3846 102.686 99.0741 102.996 98.6895 102.996C98.3049 102.996 97.9944 102.686 97.9944 102.303V81.2162C97.9944 80.8325 98.3049 80.5227 98.6895 80.5227C99.0741 80.5227 99.3846 80.8325 99.3846 81.2162V84.3553H107.596V75.525C107.596 73.4446 106.345 71.6045 104.412 70.8324L93.4299 66.4496L93.0268 67.1339C91.7061 69.3623 87.9665 74.887 81.7106 78.0077C81.6133 78.0539 81.5068 78.0816 81.4002 78.0816C81.2936 78.0816 81.187 78.0585 81.0897 78.0077C74.8339 74.887 71.0896 69.3623 69.7736 67.1339L69.3704 66.4496L58.3879 70.8324C56.4509 71.6045 55.2044 73.4492 55.2044 75.525V84.3553H63.4158V81.2162C63.4158 80.8325 63.7263 80.5227 64.1109 80.5227C64.4955 80.5227 64.806 80.8325 64.806 81.2162V102.303C64.806 102.686 64.4955 102.996 64.1109 102.996C63.7263 102.996 63.4158 102.686 63.4158 102.303V85.7469H57.1229V102.303C57.1229 102.686 56.8124 102.996 56.4278 102.996C56.0431 102.996 55.7327 102.686 55.7327 102.303V85.7469H54.5093C54.3239 85.7469 54.1479 85.673 54.0181 85.5435C53.8884 85.4141 53.8142 85.2337 53.8142 85.0488V75.525C53.8142 72.8713 55.4083 70.5227 57.8736 69.5426L71.0479 64.286C72.2481 63.8052 73.0266 62.6632 73.0266 61.3734V56.8519L72.5539 56.5883C71.6828 56.0983 70.8579 55.5389 70.1072 54.9332C66.97 52.3997 64.7504 48.8583 63.8653 44.9563C63.666 44.0826 63.5316 43.1857 63.4668 42.2934L63.4204 41.6554L62.8087 41.4704C60.9042 40.9018 59.5742 39.1172 59.5742 37.1339V29.4547C59.5742 21.5999 63.8514 14.323 70.7374 10.458L71.3028 10.139L71.1962 9.50095C71.1313 9.12185 71.0989 8.74275 71.0989 8.36827C71.0989 3.75893 75.7189 0.00488281 81.4048 0.00488281C87.0907 0.00488281 91.7107 3.75431 91.7107 8.36827C91.7107 8.7335 91.6783 9.11723 91.6134 9.50095L91.5068 10.139L92.0722 10.458C98.9582 14.323 103.235 21.5999 103.235 29.4547V33.2874C103.235 33.6711 102.925 33.9808 102.54 33.9808C102.156 33.9808 101.845 33.6711 101.845 33.2874V29.4547C101.845 18.2111 92.6746 9.06175 81.4048 9.06175C70.135 9.06175 60.9644 18.2111 60.9644 29.4547V33.5648L62.2665 32.9869C62.8504 32.728 63.4714 32.5939 64.1109 32.5939C66.8032 32.5939 69.0738 30.666 70.5011 29.0525C71.9886 27.3697 72.9108 25.6591 73.0822 25.3308C73.1888 25.1228 73.3602 24.9887 73.5688 24.9425C73.6197 24.9332 73.6661 24.9286 73.7171 24.9286C73.8746 24.9286 74.0275 24.9841 74.1527 25.0812C77.8274 28.0123 82.3177 28.9046 86.6643 29.7645C93.2121 31.059 99.3938 32.2841 99.3938 40.9619C99.3938 42.3072 99.2455 43.648 98.949 44.9517C98.0592 48.8537 95.8442 52.3997 92.707 54.9286C91.9517 55.5389 91.1268 56.0937 90.2603 56.5837L89.7923 56.8472V61.3687C89.7923 62.6586 90.5661 63.8005 91.7663 64.2814L104.941 69.5379C107.411 70.5227 109.005 72.8713 109 75.5204V85.0488C109 85.4325 108.69 85.7423 108.305 85.7423H107.082V102.298C107.072 102.682 106.757 102.996 106.373 102.996ZM74.4075 61.3641C74.4075 63.1764 73.3278 64.8084 71.6642 65.5204L70.6726 65.9457L71.2425 66.8611C72.7208 69.2236 75.946 73.6017 80.9507 76.3572L81.4002 76.6022L81.8497 76.3572C86.8543 73.6017 90.0796 69.2236 91.5578 66.8611L92.1278 65.9503L91.1361 65.525C89.4679 64.8084 88.3928 63.1764 88.3928 61.3687V57.5453L87.1694 57.9568C85.2973 58.5902 83.3557 58.9092 81.4048 58.9092C79.4539 58.9092 77.5123 58.5902 75.6402 57.9568L74.4168 57.5453V61.3641H74.4075ZM73.4344 27.4714C71.8588 29.9032 68.5502 33.9855 64.1062 33.9855C62.3731 33.9855 60.9598 35.3909 60.9598 37.1246C60.9598 38.8583 62.3685 40.2638 64.1062 40.2638C64.4908 40.2638 64.8013 40.5735 64.8013 40.9573C64.8013 42.2009 64.9403 43.4399 65.2137 44.6373C66.034 48.2388 68.0775 51.5074 70.9738 53.8422C73.9534 56.2462 77.5586 57.5176 81.3955 57.5176C85.2324 57.5176 88.8423 56.2462 91.8219 53.8422C94.7182 51.5074 96.7617 48.2388 97.582 44.6373C97.8554 43.4353 97.9944 42.1963 97.9944 40.9573C97.9944 33.7867 93.5828 32.5477 86.3863 31.1237C82.6189 30.3794 78.351 29.5333 74.7134 27.194L73.9349 26.6947L73.4344 27.4714ZM81.3955 1.39647C76.5484 1.39647 72.642 4.36457 72.4937 8.1556L72.4381 9.54719L73.7449 9.05713C76.1916 8.14173 78.7634 7.67479 81.3955 7.67479C84.0276 7.67479 86.5995 8.14173 89.0462 9.05713L90.353 9.54719L90.2974 8.1556C90.1537 4.36457 86.2427 1.39647 81.3955 1.39647Z" fill="#343434"/>
<path d="M29.5183 102.996C29.1337 102.996 28.8232 102.686 28.8232 102.303V61.5213L23.7398 65.3216C23.2764 65.6683 22.7342 65.8486 22.1642 65.8486C21.3718 65.8486 20.6258 65.488 20.1207 64.8639L13.6007 56.7317C13.508 56.6161 13.457 56.4774 13.4478 56.3294L13.3968 55.1413L5.00004 57.6563C2.84062 58.3036 1.39019 60.2499 1.39019 62.4968V102.307C1.39019 102.691 1.07971 103.001 0.695094 103.001C0.310475 103.001 0 102.691 0 102.307V62.4968C0 59.6304 1.84895 57.1478 4.60616 56.3248L15.4682 53.0747L17.4098 50.1667C17.521 50.0049 17.6925 49.8939 17.8917 49.8662C17.9242 49.8616 17.9566 49.857 17.989 49.857C18.0307 49.857 18.0771 49.8616 18.1188 49.8708L19.217 50.0789V46.089L18.8417 45.8116C14.6062 42.6864 11.9602 37.906 11.5803 32.7048L11.5339 32.0715L10.9222 31.8865C9.01769 31.3133 7.68774 29.5287 7.68774 27.55C7.68774 26.237 8.27162 24.9887 9.28646 24.1195L9.61083 23.8422V14.1195C9.6062 6.33868 15.9547 0.00488281 23.7537 0.00488281H39.1245C42.0393 0.00488281 44.5972 1.96512 45.3433 4.77141L45.4313 5.10428L45.7187 5.29846C48.0403 6.8611 49.4258 9.44085 49.4258 12.2009V23.8329L49.7502 24.1103C50.765 24.9748 51.3489 26.2277 51.3489 27.5407C51.3489 29.5241 50.019 31.3086 48.1144 31.8773L47.5027 32.0622L47.4564 32.6956C47.0764 37.8967 44.4304 42.6725 40.195 45.8024L39.8196 46.0798V50.0696L40.9179 49.8616C40.9596 49.8523 41.0013 49.8477 41.0476 49.8477C41.0801 49.8477 41.1125 49.8477 41.1403 49.8523C41.3396 49.8801 41.511 49.991 41.6222 50.1575L43.5639 53.0655L54.4259 56.3156C57.1784 57.1385 59.032 59.6212 59.032 62.4876C59.032 62.8713 58.7215 63.181 58.3369 63.181C57.9523 63.181 57.6418 62.8713 57.6418 62.4876C57.6418 60.2361 56.1914 58.2943 54.032 57.6471L45.6352 55.132L45.5843 56.3202C45.5796 56.4681 45.5287 56.6068 45.436 56.7224L38.9114 64.8593C38.4109 65.488 37.6648 65.844 36.8724 65.844C36.3024 65.844 35.7603 65.6591 35.2969 65.317L30.2181 61.5167V102.298C30.2134 102.682 29.9029 102.996 29.5183 102.996ZM30.6397 60.0974L36.131 64.2074C36.3441 64.3646 36.599 64.4524 36.8632 64.4524C37.2385 64.4524 37.586 64.2814 37.8224 63.9901L44.0226 56.2555L40.8947 51.5722L30.6397 60.0974ZM15.0094 56.2555L21.2143 63.9901C21.446 64.2814 21.7935 64.4478 22.1689 64.4478C22.4376 64.4478 22.6925 64.3646 22.9057 64.2028L28.3969 60.0974L18.142 51.5722L15.0094 56.2555ZM20.6072 51.8126L29.5183 59.2236L38.4294 51.8126V47.0229L37.1087 47.6378C34.7176 48.752 32.1643 49.316 29.5183 49.316C26.8723 49.316 24.319 48.752 21.9279 47.6378L20.6072 47.0229V51.8126ZM12.2244 24.4016C11.7378 24.4016 11.2466 24.5218 10.8018 24.7437L10.7508 24.7714L10.6581 24.8361C9.67107 25.414 9.07793 26.4219 9.07793 27.5407C9.07793 29.2698 10.4913 30.6799 12.2244 30.6799C12.609 30.6799 12.9195 30.9896 12.9195 31.3734C12.9195 40.5042 20.3663 47.9291 29.5137 47.9291C38.6658 47.9291 46.1079 40.4996 46.1079 31.3734C46.1079 30.9896 46.4184 30.6799 46.803 30.6799C48.5361 30.6799 49.9495 29.2744 49.9495 27.5407C49.9495 26.4219 49.3609 25.414 48.3739 24.8408C48.1607 24.7159 48.0264 24.4848 48.0264 24.2397V12.2009C48.0264 9.71362 46.6547 7.3974 44.4489 6.15375C44.2636 6.04742 44.1338 5.86711 44.1014 5.65445C43.7075 3.18565 41.613 1.39185 39.1153 1.39185H23.7537C16.724 1.39185 11.001 7.10151 11.001 14.1149V23.0655L11.9788 23.01C12.0622 23.0054 12.1456 23.0007 12.2244 23.0007H14.4904C15.0696 23.0007 15.5747 22.5893 15.6906 22.0252L16.8722 16.126C17.0159 15.414 17.4515 14.7899 18.0724 14.4154C18.4802 14.1704 18.9529 14.0363 19.4395 14.0363C19.6943 14.0363 19.9446 14.0733 20.1902 14.1427C22.8269 14.9101 26.1402 15.3308 29.5183 15.3308C33.8325 15.3308 37.9336 14.6512 40.7788 13.4677C40.8623 13.4307 40.9549 13.4122 41.0476 13.4122C41.3303 13.4122 41.5852 13.5786 41.6917 13.8421C41.84 14.1935 41.6732 14.605 41.3164 14.7529C38.2672 16.0243 34.0781 16.7224 29.5183 16.7224C25.9594 16.7224 22.5998 16.2925 19.8009 15.4788C19.6851 15.4464 19.5599 15.4279 19.4395 15.4279C19.2078 15.4279 18.9853 15.4926 18.7907 15.6128C18.508 15.7793 18.3088 16.0659 18.2439 16.408L17.0622 22.298C16.8166 23.5139 15.7369 24.3969 14.495 24.3969H12.2244V24.4016Z" fill="#343434"/>
<path d="M23.7725 75.7568H23.754C22.8595 75.7568 22.1411 76.4828 22.1411 77.3752C22.1411 78.2723 22.878 78.9936 23.7725 78.9936C24.6717 78.9936 25.3947 78.2677 25.3947 77.3752C25.3993 76.4828 24.6717 75.7568 23.7725 75.7568Z" fill="#343434"/>
<path d="M23.7725 91.0957H23.754C22.8595 91.0957 22.1411 91.8217 22.1411 92.7141C22.1411 93.6065 22.878 94.3325 23.7725 94.3325C24.6717 94.3325 25.3947 93.6065 25.3947 92.7141C25.3993 91.8217 24.6717 91.0957 23.7725 91.0957Z" fill="#343434"/>
<path d="M23.7725 83.4248H23.754C22.8595 83.4248 22.1411 84.1508 22.1411 85.0432C22.1411 85.9356 22.878 86.6616 23.7725 86.6616C24.6717 86.6616 25.3947 85.9356 25.3947 85.0432C25.3993 84.1508 24.6717 83.4248 23.7725 83.4248Z" fill="#343434"/>
</svg>
