<svg width="14" height="14" viewBox="0 0 14 14" fill="none" xmlns="http://www.w3.org/2000/svg">
<circle cx="7" cy="7" r="7" fill="#313D55"/>
<path d="M7.08521 3C7.48622 3 7.83041 3.08228 8.11779 3.24684C8.41186 3.40393 8.63241 3.61711 8.77945 3.8864C8.92648 4.15568 9 4.44367 9 4.75035C9 5.04208 8.95322 5.29266 8.85965 5.5021C8.77277 5.70407 8.66583 5.86863 8.53885 5.99579C8.41186 6.12295 8.24144 6.27256 8.02757 6.4446C7.74687 6.66152 7.53634 6.86349 7.39599 7.05049C7.25564 7.23001 7.18546 7.47312 7.18546 7.7798V8.28471H6.27318V7.7237C6.27318 7.40206 6.31997 7.12903 6.41353 6.90463C6.51378 6.68022 6.63074 6.5007 6.76441 6.36606C6.89808 6.23142 7.07519 6.07807 7.29574 5.90603C7.54971 5.71903 7.73684 5.55072 7.85714 5.40112C7.97744 5.25152 8.03759 5.05704 8.03759 4.81767C8.03759 4.51099 7.94737 4.27536 7.76692 4.1108C7.58647 3.93876 7.33918 3.85274 7.02506 3.85274C6.49039 3.85274 6.0259 4.12202 5.63158 4.66059L5 4.1108C5.5614 3.37027 6.25647 3 7.08521 3ZM6.75439 9.44039C6.95489 9.44039 7.12197 9.51519 7.25564 9.6648C7.38931 9.8144 7.45614 9.99766 7.45614 10.2146C7.45614 10.4315 7.38931 10.6185 7.25564 10.7756C7.12197 10.9252 6.95489 11 6.75439 11C6.56057 11 6.39683 10.9252 6.26316 10.7756C6.12949 10.6185 6.06266 10.4315 6.06266 10.2146C6.06266 9.99766 6.12949 9.8144 6.26316 9.6648C6.39683 9.51519 6.56057 9.44039 6.75439 9.44039Z" fill="white"/>
</svg>
