<svg width="16" height="16" viewBox="0 0 16 16" fill="none" xmlns="http://www.w3.org/2000/svg">
<path d="M7.99982 0.0852051C6.43441 0.0852051 4.90415 0.549403 3.60256 1.4191C2.30097 2.28879 1.2865 3.52493 0.687447 4.97118C0.0883903 6.41743 -0.0683502 8.00884 0.237046 9.54417C0.542443 11.0795 1.29626 12.4898 2.40317 13.5967C3.51008 14.7036 4.92038 15.4574 6.45571 15.7628C7.99104 16.0682 9.58245 15.9115 11.0287 15.3124C12.475 14.7134 13.7111 13.6989 14.5808 12.3973C15.4505 11.0957 15.9147 9.56547 15.9147 8.00006C15.9122 5.90167 15.0775 3.88993 13.5937 2.40615C12.1099 0.922359 10.0982 0.0876806 7.99982 0.0852051ZM14.4332 7.28053H11.5759C11.5464 5.45212 11.1406 3.64939 10.3836 1.98477C11.4747 2.4183 12.4277 3.13988 13.1409 4.07254C13.8541 5.00519 14.3007 6.11394 14.4332 7.28053ZM7.99982 14.4759C7.1738 14.4759 5.9988 12.2568 5.85561 8.71959H10.144C10.0008 12.2568 8.82584 14.4759 7.99982 14.4759ZM5.85561 7.28053C5.99952 3.74331 7.1738 1.52427 7.99982 1.52427C8.82584 1.52427 10.0008 3.74331 10.144 7.28053L5.85561 7.28053ZM5.61601 1.98477C4.85905 3.64939 4.45319 5.45212 4.42374 7.28053H1.56648C1.69894 6.11394 2.14558 5.00519 2.85876 4.07254C3.57194 3.13988 4.5249 2.4183 5.61601 1.98477ZM1.56648 8.71959H4.42374C4.45319 10.548 4.85905 12.3507 5.61601 14.0154C4.5249 13.5818 3.57194 12.8602 2.85876 11.9276C2.14558 10.9949 1.69894 9.88618 1.56648 8.71959ZM10.3836 14.0154C11.1406 12.3507 11.5464 10.548 11.5759 8.71959H14.4332C14.3007 9.88618 13.8541 10.9949 13.1409 11.9276C12.4277 12.8602 11.4747 13.5818 10.3836 14.0154Z" fill="#566178"/>
</svg>
