<svg width="16" height="16" viewBox="0 0 16 16" fill="none" xmlns="http://www.w3.org/2000/svg">
<path d="M7.99984 0.876709C6.59097 0.876709 5.21374 1.29449 4.0423 2.07721C2.87087 2.85994 1.95785 3.97246 1.4187 5.27408C0.879551 6.57571 0.738485 8.00798 1.01334 9.38978C1.2882 10.7716 1.96663 12.0408 2.96285 13.0371C3.95908 14.0333 5.22834 14.7117 6.61014 14.9866C7.99193 15.2614 9.42421 15.1204 10.7258 14.5812C12.0275 14.0421 13.14 13.129 13.9227 11.9576C14.7054 10.7862 15.1232 9.40895 15.1232 8.00008C15.121 6.11153 14.3698 4.30096 13.0344 2.96556C11.6989 1.63015 9.88839 0.878937 7.99984 0.876709ZM13.7898 7.3525H11.2183C11.1918 5.70693 10.8265 4.08448 10.1453 2.58632C11.1273 2.9765 11.9849 3.62592 12.6268 4.46531C13.2687 5.3047 13.6706 6.30257 13.7898 7.3525ZM7.99984 13.8283C7.25642 13.8283 6.19892 11.8312 6.07005 8.64766H9.92962C9.80075 11.8312 8.74326 13.8283 7.99984 13.8283ZM6.07005 7.3525C6.19957 4.169 7.25642 2.17187 7.99984 2.17187C8.74326 2.17187 9.80075 4.169 9.92962 7.3525L6.07005 7.3525ZM5.85441 2.58632C5.17315 4.08448 4.80787 5.70693 4.78137 7.3525H2.20983C2.32905 6.30257 2.73102 5.3047 3.37288 4.46531C4.01474 3.62592 4.87241 2.9765 5.85441 2.58632ZM2.20983 8.64766H4.78137C4.80787 10.2932 5.17315 11.9157 5.85441 13.4138C4.87241 13.0237 4.01474 12.3742 3.37288 11.5349C2.73102 10.6955 2.32905 9.69758 2.20983 8.64766ZM10.1453 13.4138C10.8265 11.9157 11.1918 10.2932 11.2183 8.64766H13.7898C13.6706 9.69758 13.2687 10.6955 12.6268 11.5349C11.9849 12.3742 11.1273 13.0237 10.1453 13.4138Z" fill="white"/>
</svg>
