<svg width="18" height="18" viewBox="0 0 18 18" fill="none" xmlns="http://www.w3.org/2000/svg">
<path d="M8.99984 1.87646C7.59097 1.87646 6.21374 2.29424 5.0423 3.07697C3.87087 3.85969 2.95785 4.97221 2.4187 6.27384C1.87955 7.57546 1.73848 9.00774 2.01334 10.3895C2.2882 11.7713 2.96663 13.0406 3.96285 14.0368C4.95908 15.033 6.22834 15.7115 7.61014 15.9863C8.99193 16.2612 10.4242 16.1201 11.7258 15.581C13.0275 15.0418 14.14 14.1288 14.9227 12.9574C15.7054 11.7859 16.1232 10.4087 16.1232 8.99983C16.121 7.11128 15.3698 5.30072 14.0344 3.96531C12.6989 2.6299 10.8884 1.87869 8.99984 1.87646ZM14.7898 8.35225H12.2183C12.1918 6.70669 11.8265 5.08423 11.1453 3.58607C12.1273 3.97625 12.9849 4.62567 13.6268 5.46506C14.2687 6.30445 14.6706 7.30233 14.7898 8.35225ZM8.99984 14.828C8.25642 14.828 7.19892 12.8309 7.07005 9.64741H10.9296C10.8008 12.8309 9.74326 14.828 8.99984 14.828ZM7.07005 8.35225C7.19957 5.16876 8.25642 3.17162 8.99984 3.17162C9.74326 3.17162 10.8008 5.16876 10.9296 8.35225H7.07005ZM6.85441 3.58607C6.17315 5.08423 5.80787 6.70669 5.78137 8.35225H3.20983C3.32905 7.30233 3.73102 6.30445 4.37288 5.46506C5.01474 4.62567 5.87241 3.97625 6.85441 3.58607ZM3.20983 9.64741H5.78137C5.80787 11.293 6.17315 12.9154 6.85441 14.4136C5.87241 14.0234 5.01474 13.374 4.37288 12.5346C3.73102 11.6952 3.32905 10.6973 3.20983 9.64741ZM11.1453 14.4136C11.8265 12.9154 12.1918 11.293 12.2183 9.64741H14.7898C14.6706 10.6973 14.2687 11.6952 13.6268 12.5346C12.9849 13.374 12.1273 14.0234 11.1453 14.4136Z" fill="#BAC3D4"/>
</svg>
