<svg width="20" height="20" viewBox="0 0 20 20" fill="none" xmlns="http://www.w3.org/2000/svg">
<path d="M9.99978 0.501953C8.12129 0.501953 6.28498 1.05899 4.72307 2.10263C3.16116 3.14626 1.9438 4.62962 1.22494 6.36512C0.506068 8.10062 0.31798 10.0103 0.684455 11.8527C1.05093 13.6951 1.95551 15.3875 3.28381 16.7158C4.6121 18.0441 6.30445 18.9486 8.14685 19.3151C9.98925 19.6816 11.8989 19.4935 13.6344 18.7746C15.3699 18.0558 16.8533 16.8384 17.8969 15.2765C18.9406 13.7146 19.4976 11.8783 19.4976 9.99978C19.4946 7.48171 18.493 5.06763 16.7125 3.28708C14.9319 1.50654 12.5179 0.504924 9.99978 0.501953ZM17.7198 9.13634L14.2911 9.13634C14.2557 6.94225 13.7687 4.77897 12.8604 2.78143C14.1697 3.30167 15.3132 4.16756 16.1691 5.28675C17.0249 6.40594 17.5608 7.73644 17.7198 9.13634ZM9.99978 17.7707C9.00856 17.7707 7.59856 15.1079 7.42674 10.8632H12.5728C12.401 15.1079 10.991 17.7707 9.99978 17.7707ZM7.42674 9.13634C7.59942 4.89167 9.00856 2.22883 9.99978 2.22883C10.991 2.22883 12.401 4.89167 12.5728 9.13634H7.42674ZM7.13921 2.78143C6.23086 4.77897 5.74383 6.94225 5.70849 9.13634H2.27978C2.43873 7.73644 2.9747 6.40594 3.83051 5.28675C4.68632 4.16756 5.82988 3.30167 7.13921 2.78143ZM2.27978 10.8632H5.70849C5.74383 13.0573 6.23086 15.2206 7.13921 17.2181C5.82988 16.6979 4.68632 15.832 3.83051 14.7128C2.9747 13.5936 2.43873 12.2631 2.27978 10.8632ZM12.8604 17.2181C13.7687 15.2206 14.2557 13.0573 14.2911 10.8632L17.7198 10.8632C17.5608 12.2631 17.0249 13.5936 16.1691 14.7128C15.3132 15.832 14.1697 16.6979 12.8604 17.2181Z" fill="#566178"/>
</svg>
