<svg width="24" height="24" viewBox="0 0 24 24" fill="none" xmlns="http://www.w3.org/2000/svg">
<path d="M2.22214 2.36855C1.64838 2.36855 1.18325 2.83368 1.18325 3.40744V16.8466C1.18325 17.4204 1.64838 17.8855 2.22214 17.8855H8.55825V20.5184C8.55825 21.0553 9.14908 21.3825 9.6042 21.0976L14.7346 17.8855H21.7777C22.3515 17.8855 22.8166 17.4204 22.8166 16.8466V3.40744C22.8166 2.83368 22.3515 2.36855 21.7777 2.36855H2.22214ZM21.2666 15.8979C21.2666 16.1096 21.095 16.2812 20.8832 16.2812H14.4985C14.3703 16.2812 14.2446 16.3173 14.1359 16.3854L10.1083 18.907V16.9646C10.1083 16.5872 9.80231 16.2812 9.42492 16.2812H3.11659C2.90488 16.2812 2.73325 16.1096 2.73325 15.8979V4.3562C2.73325 4.14449 2.90488 3.97287 3.11659 3.97287H20.8832C21.095 3.97287 21.2666 4.14449 21.2666 4.3562V15.8979Z" fill="#566178" stroke="#566178" stroke-width="0.3"/>
<path d="M9.04224 13.6177C10.1587 13.6177 11.0885 13.2265 11.7105 12.5045C11.7412 12.4689 11.7373 12.4156 11.7028 12.3838L10.8525 11.5989C10.8155 11.5647 10.7575 11.5683 10.7234 11.6055C10.2911 12.0778 9.75627 12.318 9.12699 12.318C7.8932 12.318 7.01724 11.4515 7.01724 10.2083C7.01724 8.96504 7.89316 8.09854 9.12699 8.09854C9.75621 8.09854 10.2911 8.33873 10.7234 8.80279C10.7575 8.83946 10.8151 8.84278 10.8519 8.80879L11.7024 8.02373C11.7371 7.99174 11.7408 7.93813 11.7098 7.90258C11.0877 7.18977 10.1585 6.79883 9.05166 6.79883C6.99841 6.79883 5.47266 8.22099 5.47266 10.2083C5.47266 12.1957 6.99841 13.6177 9.04224 13.6177Z" fill="#566178"/>
<path d="M15.8052 13.6177C16.9217 13.6177 17.8514 13.2265 18.4735 12.5045C18.5042 12.4689 18.5003 12.4156 18.4658 12.3838L17.6155 11.5989C17.5785 11.5647 17.5205 11.5683 17.4864 11.6055C17.0541 12.0778 16.5193 12.318 15.89 12.318C14.6561 12.318 13.7802 11.4515 13.7802 10.2083C13.7802 8.96504 14.6561 8.09854 15.89 8.09854C16.5192 8.09854 17.0541 8.33873 17.4864 8.80279C17.5205 8.83946 17.5781 8.84278 17.6149 8.80879L18.4654 8.02373C18.5001 7.99174 18.5038 7.93813 18.4728 7.90258C17.8507 7.18977 16.9216 6.79883 15.8146 6.79883C13.7614 6.79883 12.2356 8.22099 12.2356 10.2083C12.2356 12.1957 13.7614 13.6177 15.8052 13.6177Z" fill="#566178"/>
</svg>
