<svg width="18" height="18" viewBox="0 0 18 18" fill="none" xmlns="http://www.w3.org/2000/svg">
<path d="M1.88889 1.73892C1.31513 1.73892 0.85 2.20404 0.85 2.7778V12.4128C0.85 12.9865 1.31513 13.4516 1.88889 13.4516H6.38125V15.148C6.38125 15.6849 6.97208 16.0121 7.4272 15.7272L11.0618 13.4516H16.1111C16.6849 13.4516 17.15 12.9865 17.15 12.4128V2.77781C17.15 2.20404 16.6849 1.73892 16.1111 1.73892H1.88889ZM15.9125 11.7901C15.9125 12.0018 15.7409 12.1734 15.5292 12.1734H10.9122C10.784 12.1734 10.6583 12.2095 10.5496 12.2776L7.61875 14.1125V12.8567C7.61875 12.4794 7.31281 12.1734 6.93542 12.1734H2.47083C2.25912 12.1734 2.0875 12.0018 2.0875 11.7901V3.40048C2.0875 3.18877 2.25912 3.01715 2.47083 3.01715H15.5292C15.7409 3.01715 15.9125 3.18877 15.9125 3.40048V11.7901Z" fill="white" stroke="white" stroke-width="0.3"/>
<path d="M6.78168 10.2131C7.61085 10.2131 8.30273 9.92533 8.76917 9.39392C8.80015 9.35862 8.79625 9.30527 8.76174 9.27341L8.15636 8.71462C8.11931 8.68041 8.06139 8.68402 8.02691 8.72081C7.70546 9.06385 7.30964 9.23828 6.84524 9.23828C5.9199 9.23828 5.26293 8.58841 5.26293 7.65597C5.26293 6.72353 5.91987 6.07366 6.84524 6.07366C7.30958 6.07366 7.70542 6.24807 8.02687 6.58523C8.06144 6.6215 8.11893 6.62482 8.15575 6.59083L8.76137 6.03181C8.79603 5.99982 8.79979 5.94617 8.76844 5.91092C8.30202 5.38631 7.61069 5.09888 6.78874 5.09888C5.2488 5.09888 4.10449 6.1655 4.10449 7.656C4.10449 9.1465 5.2488 10.2131 6.78168 10.2131Z" fill="white"/>
<path d="M11.854 10.2131C12.6832 10.2131 13.375 9.92533 13.8415 9.39392C13.8725 9.35862 13.8685 9.30527 13.834 9.27341L13.2287 8.71462C13.1916 8.68041 13.1337 8.68402 13.0992 8.72081C12.7778 9.06385 12.3819 9.23828 11.9175 9.23828C10.9922 9.23828 10.3352 8.58841 10.3352 7.65597C10.3352 6.72353 10.9922 6.07366 11.9175 6.07366C12.3819 6.07366 12.7777 6.24807 13.0992 6.58523C13.1337 6.6215 13.1912 6.62482 13.228 6.59083L13.8337 6.03181C13.8683 5.99982 13.8721 5.94617 13.8407 5.91092C13.3743 5.38631 12.683 5.09888 11.861 5.09888C10.3211 5.09888 9.17676 6.1655 9.17676 7.656C9.17676 9.1465 10.3211 10.2131 11.854 10.2131Z" fill="white"/>
</svg>
