<svg width="18" height="18" viewBox="0 0 18 18" fill="none" xmlns="http://www.w3.org/2000/svg">
<path d="M1.88889 1.73867C1.31513 1.73867 0.85 2.2038 0.85 2.77756V12.4125C0.85 12.9863 1.31513 13.4514 1.88889 13.4514H6.38125V15.1478C6.38125 15.6847 6.97208 16.0119 7.4272 15.7269L11.0618 13.4514H16.1111C16.6849 13.4514 17.15 12.9863 17.15 12.4125V2.77756C17.15 2.2038 16.6849 1.73867 16.1111 1.73867H1.88889ZM15.9125 11.7898C15.9125 12.0015 15.7409 12.1732 15.5292 12.1732H10.9122C10.784 12.1732 10.6583 12.2093 10.5496 12.2773L7.61875 14.1123V12.8565C7.61875 12.4791 7.31281 12.1732 6.93542 12.1732H2.47083C2.25912 12.1732 2.0875 12.0015 2.0875 11.7898V3.40024C2.0875 3.18853 2.25912 3.01691 2.47083 3.01691H15.5292C15.7409 3.01691 15.9125 3.18853 15.9125 3.40024V11.7898Z" fill="#BAC3D4" stroke="#BAC3D4" stroke-width="0.3"/>
<path d="M6.78168 10.2133C7.61085 10.2133 8.30273 9.92557 8.76917 9.39416C8.80015 9.35886 8.79625 9.30551 8.76174 9.27366L8.15636 8.71486C8.11931 8.68066 8.06139 8.68426 8.02691 8.72106C7.70546 9.0641 7.30964 9.23853 6.84524 9.23853C5.9199 9.23853 5.26293 8.58865 5.26293 7.65621C5.26293 6.72378 5.91987 6.0739 6.84524 6.0739C7.30958 6.0739 7.70542 6.24832 8.02687 6.58548C8.06144 6.62174 8.11893 6.62506 8.15575 6.59107L8.76137 6.03206C8.79603 6.00006 8.79979 5.94641 8.76844 5.91116C8.30202 5.38656 7.61069 5.09912 6.78874 5.09912C5.2488 5.09912 4.10449 6.16575 4.10449 7.65625C4.10449 9.14675 5.2488 10.2133 6.78168 10.2133Z" fill="#BAC3D4"/>
<path d="M11.854 10.2133C12.6832 10.2133 13.375 9.92557 13.8415 9.39416C13.8725 9.35886 13.8685 9.30551 13.834 9.27366L13.2287 8.71486C13.1916 8.68066 13.1337 8.68426 13.0992 8.72106C12.7778 9.0641 12.3819 9.23853 11.9175 9.23853C10.9922 9.23853 10.3352 8.58865 10.3352 7.65621C10.3352 6.72378 10.9922 6.0739 11.9175 6.0739C12.3819 6.0739 12.7777 6.24832 13.0992 6.58548C13.1337 6.62174 13.1912 6.62506 13.228 6.59107L13.8337 6.03206C13.8683 6.00006 13.8721 5.94641 13.8407 5.91116C13.3743 5.38656 12.683 5.09912 11.861 5.09912C10.3211 5.09912 9.17676 6.16575 9.17676 7.65625C9.17676 9.14675 10.3211 10.2133 11.854 10.2133Z" fill="#BAC3D4"/>
</svg>
