<svg width="32" height="32" viewBox="0 0 32 32" fill="none" xmlns="http://www.w3.org/2000/svg">
<g clip-path="url(#clip0)">
<path d="M16.0008 31.9997C24.8373 31.9997 32.0007 24.8363 32.0007 15.9999C32.0007 7.16338 24.8373 0 16.0008 0C7.16436 0 0.000976562 7.16338 0.000976562 15.9999C0.000976562 24.8363 7.16436 31.9997 16.0008 31.9997Z" fill="#55ACEE"/>
<path d="M25.801 11.4985C25.1153 11.8025 24.3777 12.0082 23.6043 12.1C24.394 11.6268 25.0001 10.8782 25.2861 9.98459C24.5472 10.423 23.7283 10.741 22.8576 10.9124C22.1599 10.1694 21.166 9.70508 20.0653 9.70508C17.9536 9.70508 16.2409 11.4178 16.2409 13.5295C16.2409 13.8293 16.2749 14.121 16.3405 14.4011C13.162 14.2417 10.3439 12.7192 8.45747 10.4047C8.12833 10.9694 7.93952 11.6268 7.93952 12.3276C7.93952 13.6541 8.61519 14.8252 9.64081 15.5109C9.0142 15.4912 8.4241 15.3192 7.90872 15.032C7.90843 15.0483 7.90843 15.0645 7.90843 15.0805C7.90843 16.9335 9.22726 18.4791 10.9765 18.8302C10.6559 18.918 10.3173 18.9645 9.96909 18.9645C9.7221 18.9645 9.48281 18.9408 9.2495 18.8963C9.73607 20.4154 11.1482 21.5212 12.8221 21.5522C11.5129 22.5782 9.86413 23.1894 8.07186 23.1894C7.76383 23.1894 7.45865 23.1714 7.16003 23.1357C8.85163 24.2213 10.8624 24.8541 13.022 24.8541C20.0565 24.8541 23.9034 19.0267 23.9034 13.9724C23.9034 13.8067 23.8997 13.6416 23.8923 13.4779C24.6401 12.9388 25.2884 12.2654 25.801 11.4985Z" fill="#F1F2F2"/>
</g>
<defs>
<clipPath id="clip0">
<rect width="32" height="32" fill="white"/>
</clipPath>
</defs>
</svg>
